<?xml version="1.0" encoding="UTF-8"?>
<!DOCTYPE svg PUBLIC "-//W3C//DTD SVG 1.1//EN" "http://www.w3.org/Graphics/SVG/1.1/DTD/svg11.dtd">
<svg xmlns="http://www.w3.org/2000/svg" version="1.1" width="256px" height="256px" style="shape-rendering:geometricPrecision; text-rendering:geometricPrecision; image-rendering:optimizeQuality; fill-rule:evenodd; clip-rule:evenodd" xmlns:xlink="http://www.w3.org/1999/xlink">
<g><path style="opacity:0.994" fill="#273338" d="M 195.5,167.5 C 192.763,167.401 190.096,167.735 187.5,168.5C 184.037,166.501 180.703,164.501 177.5,162.5C 181.075,154.878 182.242,146.878 181,138.5C 178.749,131.258 174.249,126.425 167.5,124C 179.734,135.546 180.734,148.046 170.5,161.5C 169.833,156.833 169.167,152.167 168.5,147.5C 168.315,142.393 167.482,137.393 166,132.5C 159.08,118.235 153.247,103.568 148.5,88.5C 148.662,86.4727 148.495,84.4727 148,82.5C 147.184,81.1772 146.017,80.5106 144.5,80.5C 147.233,75.5387 148.067,70.2053 147,64.5C 143.3,56.5599 138.3,55.5599 132,61.5C 130.154,65.7636 128.987,70.097 128.5,74.5C 126.167,74.5 123.833,74.5 121.5,74.5C 122.657,68.614 120.99,63.7807 116.5,60C 113.692,59.0799 111.525,59.9133 110,62.5C 106.427,68.6278 106.927,74.2944 111.5,79.5C 106.422,82.2483 105.255,86.2483 108,91.5C 108.708,92.3805 109.542,93.0472 110.5,93.5C 110.446,99.3843 109.279,105.051 107,110.5C 102.268,119.629 97.2679,128.629 92,137.5C 89.7191,143.29 88.3858,149.29 88,155.5C 85.8251,147.405 86.6584,139.572 90.5,132C 90.3333,131.5 90.1667,131 90,130.5C 84.8926,138.812 82.8926,147.812 84,157.5C 86.0751,161.579 88.9084,165.079 92.5,168C 98.9785,172.977 105.312,178.144 111.5,183.5C 113.936,188.913 112.269,192.246 106.5,193.5C 114.306,201.044 123.639,203.878 134.5,202C 142.793,200.352 150.127,196.852 156.5,191.5C 155.216,198.921 154.216,206.255 153.5,213.5C 139.488,212.184 125.488,212.184 111.5,213.5C 112.111,208.382 110.944,203.715 108,199.5C 101.084,189.337 94.4174,179.003 88,168.5C 85.473,165.973 82.973,163.473 80.5,161C 78.1902,160.503 75.8568,160.337 73.5,160.5C 72.8761,160.083 72.5427,159.416 72.5,158.5C 75.7471,143.925 81.2471,130.258 89,117.5C 94.4945,110.513 99.4945,103.18 104,95.5C 104.042,84.4926 103.542,73.4926 102.5,62.5C 103.073,37.4367 115.74,27.2701 140.5,32C 153.081,36.2645 160.248,45.0978 162,58.5C 160.934,73.5665 164.267,87.5665 172,100.5C 182.497,113.015 190.497,127.015 196,142.5C 198.059,150.889 197.893,159.222 195.5,167.5 Z"/></g>
<g><path style="opacity:1" fill="#dfe2e3" d="M 144.5,80.5 C 142.694,79.9759 141.028,79.3092 139.5,78.5C 144.277,74.6758 144.61,70.5091 140.5,66C 135.605,64.8837 132.939,66.8837 132.5,72C 132.773,73.5328 133.106,75.0328 133.5,76.5C 131.694,75.9759 130.028,75.3092 128.5,74.5C 128.987,70.097 130.154,65.7636 132,61.5C 138.3,55.5599 143.3,56.5599 147,64.5C 148.067,70.2053 147.233,75.5387 144.5,80.5 Z"/></g>
<g><path style="opacity:1" fill="#dbdfe0" d="M 121.5,74.5 C 120.391,74.5569 119.391,74.8902 118.5,75.5C 119.425,71.1056 118.092,67.7723 114.5,65.5C 113.833,65.6667 113.167,65.8333 112.5,66C 111.06,69.9818 111.393,73.8151 113.5,77.5C 113.167,78.5 112.5,79.1667 111.5,79.5C 106.927,74.2944 106.427,68.6278 110,62.5C 111.525,59.9133 113.692,59.0799 116.5,60C 120.99,63.7807 122.657,68.614 121.5,74.5 Z"/></g>
<g><path style="opacity:1" fill="#282726" d="M 118.5,75.5 C 116.95,76.4408 115.284,77.1075 113.5,77.5C 111.393,73.8151 111.06,69.9818 112.5,66C 113.167,65.8333 113.833,65.6667 114.5,65.5C 118.092,67.7723 119.425,71.1056 118.5,75.5 Z"/></g>
<g><path style="opacity:1" fill="#292928" d="M 139.5,78.5 C 137.421,78.0293 135.421,77.3627 133.5,76.5C 133.106,75.0328 132.773,73.5328 132.5,72C 132.939,66.8837 135.605,64.8837 140.5,66C 144.61,70.5091 144.277,74.6758 139.5,78.5 Z"/></g>
<g><path style="opacity:1" fill="#f8bc0e" d="M 121.5,74.5 C 123.833,74.5 126.167,74.5 128.5,74.5C 130.028,75.3092 131.694,75.9759 133.5,76.5C 135.421,77.3627 137.421,78.0293 139.5,78.5C 141.028,79.3092 142.694,79.9759 144.5,80.5C 146.017,80.5106 147.184,81.1772 148,82.5C 148.495,84.4727 148.662,86.4727 148.5,88.5C 143.11,93.0437 137.11,96.8771 130.5,100C 126.5,100.667 122.5,100.667 118.5,100C 115.669,97.9993 113.003,95.8327 110.5,93.5C 109.542,93.0472 108.708,92.3805 108,91.5C 105.255,86.2483 106.422,82.2483 111.5,79.5C 112.5,79.1667 113.167,78.5 113.5,77.5C 115.284,77.1075 116.95,76.4408 118.5,75.5C 119.391,74.8902 120.391,74.5569 121.5,74.5 Z"/></g>
<g><path style="opacity:0.999" fill="#eaedef" d="M 148.5,88.5 C 153.247,103.568 159.08,118.235 166,132.5C 167.482,137.393 168.315,142.393 168.5,147.5C 168.334,152.844 168.501,158.177 169,163.5C 169.717,162.956 170.217,162.289 170.5,161.5C 180.734,148.046 179.734,135.546 167.5,124C 174.249,126.425 178.749,131.258 181,138.5C 182.242,146.878 181.075,154.878 177.5,162.5C 174.568,163.938 171.568,165.271 168.5,166.5C 164.276,163.431 160.776,164.098 158,168.5C 157.692,176.192 157.192,183.858 156.5,191.5C 150.127,196.852 142.793,200.352 134.5,202C 123.639,203.878 114.306,201.044 106.5,193.5C 112.269,192.246 113.936,188.913 111.5,183.5C 105.312,178.144 98.9785,172.977 92.5,168C 88.9084,165.079 86.0751,161.579 84,157.5C 82.8926,147.812 84.8926,138.812 90,130.5C 90.1667,131 90.3333,131.5 90.5,132C 86.6584,139.572 85.8251,147.405 88,155.5C 88.3858,149.29 89.7191,143.29 92,137.5C 97.2679,128.629 102.268,119.629 107,110.5C 109.279,105.051 110.446,99.3843 110.5,93.5C 113.003,95.8327 115.669,97.9993 118.5,100C 122.5,100.667 126.5,100.667 130.5,100C 137.11,96.8771 143.11,93.0437 148.5,88.5 Z"/></g>
<g><path style="opacity:1" fill="#745403" d="M 140.5,83.5 C 143.999,83.259 144.332,84.0924 141.5,86C 137.112,88.8606 132.446,91.1939 127.5,93C 119.506,95.1266 112.839,93.1266 107.5,87C 119.128,93.7439 130.128,92.5772 140.5,83.5 Z"/></g>
<g><path style="opacity:1" fill="#878f93" d="M 168.5,147.5 C 169.167,152.167 169.833,156.833 170.5,161.5C 170.217,162.289 169.717,162.956 169,163.5C 168.501,158.177 168.334,152.844 168.5,147.5 Z"/></g>
<g><path style="opacity:0.992" fill="#fdc007" d="M 73.5,160.5 C 75.8568,160.337 78.1902,160.503 80.5,161C 82.973,163.473 85.473,165.973 88,168.5C 94.4174,179.003 101.084,189.337 108,199.5C 110.944,203.715 112.111,208.382 111.5,213.5C 110.251,221.412 105.584,225.412 97.5,225.5C 81.0419,220.262 64.5419,215.262 48,210.5C 46.5432,207.634 46.2099,204.634 47,201.5C 48.7391,199.29 49.9057,196.79 50.5,194C 48.8001,188.925 47.9668,183.758 48,178.5C 52.5778,176.141 57.4111,174.308 62.5,173C 66.0761,168.627 69.7428,164.46 73.5,160.5 Z"/></g>
<g><path style="opacity:1" fill="#475b63" d="M 177.5,162.5 C 180.703,164.501 184.037,166.501 187.5,168.5C 184.336,176.166 178.836,178.833 171,176.5C 170.853,172.912 170.02,169.579 168.5,166.5C 171.568,165.271 174.568,163.938 177.5,162.5 Z"/></g>
<g><path style="opacity:0.992" fill="#fdc009" d="M 168.5,166.5 C 170.02,169.579 170.853,172.912 171,176.5C 178.836,178.833 184.336,176.166 187.5,168.5C 190.096,167.735 192.763,167.401 195.5,167.5C 196.79,168.058 197.623,169.058 198,170.5C 198.788,174.573 199.788,178.573 201,182.5C 204.717,185.885 208.717,188.885 213,191.5C 213.667,193.167 213.667,194.833 213,196.5C 199.906,204.963 187.072,213.796 174.5,223C 169.833,223.667 165.167,223.667 160.5,223C 156.584,221.002 154.251,217.835 153.5,213.5C 154.216,206.255 155.216,198.921 156.5,191.5C 157.192,183.858 157.692,176.192 158,168.5C 160.776,164.098 164.276,163.431 168.5,166.5 Z"/></g>
</svg>
